<svg xmlns="http://www.w3.org/2000/svg" xmlns:xlink="http://www.w3.org/1999/xlink" width="100" zoomAndPan="magnify" viewBox="0 0 75 30.000001" height="40" preserveAspectRatio="xMidYMid meet" version="1.0"><defs><g/><clipPath id="ff60e5fc10"><path d="M 3 7 L 26.902344 7 L 26.902344 24.878906 L 3 24.878906 Z M 3 7 " clip-rule="nonzero"/></clipPath><clipPath id="926f27d691"><path d="M 3 7 L 26.902344 7 L 26.902344 19 L 3 19 Z M 3 7 " clip-rule="nonzero"/></clipPath></defs><path fill="#f7f7f7" d="M 23.957031 11.054688 C 23.925781 11.332031 23.902344 11.496094 23.902344 11.496094 L 17.675781 8.128906 C 17.675781 8.128906 17.890625 7.878906 18.242188 7.511719 C 19.394531 6.3125 21.988281 3.832031 23.203125 4.546875 C 24.527344 5.328125 24.128906 9.648438 23.957031 11.054688 Z M 23.957031 11.054688 " fill-opacity="1" fill-rule="nonzero"/><path fill="#f7f7f7" d="M 12.003906 8.4375 L 5.757812 11.777344 C 5.757812 11.777344 5.734375 11.601562 5.699219 11.308594 C 5.539062 9.875 5.171875 5.597656 6.488281 4.828125 C 7.644531 4.15625 10.027344 6.363281 11.246094 7.621094 C 11.707031 8.097656 12.003906 8.4375 12.003906 8.4375 Z M 12.003906 8.4375 " fill-opacity="1" fill-rule="nonzero"/><g clip-path="url(#ff60e5fc10)"><path fill="#f7f7f7" d="M 26.625 18.941406 C 26.890625 18.453125 26.753906 17.964844 26.554688 17.484375 C 26.472656 17.285156 26.390625 17.089844 26.3125 16.894531 C 26.3125 16.894531 26.308594 16.886719 26.308594 16.882812 C 26.308594 16.878906 26.308594 16.878906 26.304688 16.878906 C 26.273438 16.804688 26.246094 16.734375 26.21875 16.660156 C 26.21875 16.660156 26.21875 16.660156 26.21875 16.65625 C 26.195312 16.582031 26.171875 16.507812 26.152344 16.429688 C 26.113281 16.277344 26.085938 16.117188 26.074219 15.960938 C 25.976562 14.945312 25.703125 13.980469 25.261719 13.0625 C 25.210938 12.957031 25.15625 12.851562 25.101562 12.746094 C 24.785156 12.144531 24.402344 11.578125 23.960938 11.054688 C 23.621094 10.652344 23.25 10.277344 22.851562 9.933594 L 22.832031 9.917969 C 21.863281 9.082031 20.78125 8.429688 19.582031 7.957031 L 19.480469 7.917969 C 19.078125 7.761719 18.664062 7.625 18.246094 7.511719 C 17.765625 7.382812 17.28125 7.285156 16.785156 7.214844 C 16.171875 7.125 15.554688 7.082031 14.933594 7.082031 C 14.128906 7.082031 13.332031 7.15625 12.542969 7.304688 C 12.105469 7.386719 11.671875 7.492188 11.25 7.621094 C 10.894531 7.726562 10.550781 7.847656 10.210938 7.992188 C 10.148438 8.015625 10.085938 8.039062 10.023438 8.066406 C 9.921875 8.109375 9.820312 8.152344 9.722656 8.199219 C 9.496094 8.300781 9.269531 8.414062 9.054688 8.53125 C 8.964844 8.578125 8.875 8.625 8.789062 8.675781 C 8.542969 8.816406 8.304688 8.964844 8.074219 9.121094 C 8.019531 9.15625 7.960938 9.195312 7.90625 9.234375 C 7.515625 9.511719 7.140625 9.8125 6.789062 10.136719 C 6.394531 10.5 6.03125 10.890625 5.699219 11.308594 C 5.488281 11.574219 5.296875 11.847656 5.117188 12.128906 C 5.035156 12.257812 4.957031 12.386719 4.882812 12.519531 C 4.847656 12.578125 4.816406 12.640625 4.78125 12.699219 C 4.777344 12.707031 4.773438 12.71875 4.769531 12.726562 C 4.742188 12.777344 4.714844 12.832031 4.6875 12.882812 C 4.675781 12.902344 4.667969 12.921875 4.660156 12.941406 C 4.628906 13 4.601562 13.0625 4.570312 13.121094 C 4.542969 13.183594 4.515625 13.246094 4.488281 13.308594 C 4.441406 13.40625 4.398438 13.507812 4.359375 13.609375 C 4.34375 13.652344 4.328125 13.695312 4.3125 13.738281 C 4.304688 13.75 4.300781 13.761719 4.296875 13.773438 C 4.273438 13.835938 4.25 13.898438 4.230469 13.957031 C 4.203125 14.03125 4.179688 14.101562 4.15625 14.175781 C 4.113281 14.316406 4.074219 14.453125 4.035156 14.59375 C 4.035156 14.601562 4.03125 14.605469 4.03125 14.613281 C 4.011719 14.675781 3.996094 14.738281 3.984375 14.800781 C 3.980469 14.8125 3.976562 14.824219 3.972656 14.839844 C 3.960938 14.882812 3.953125 14.925781 3.945312 14.96875 C 3.933594 15.015625 3.921875 15.066406 3.914062 15.113281 C 3.902344 15.179688 3.886719 15.246094 3.878906 15.3125 C 3.867188 15.367188 3.859375 15.421875 3.851562 15.480469 C 3.847656 15.484375 3.847656 15.492188 3.847656 15.496094 C 3.828125 15.632812 3.808594 15.769531 3.792969 15.90625 C 3.765625 16.210938 3.691406 16.507812 3.574219 16.792969 C 3.476562 17.019531 3.382812 17.246094 3.289062 17.46875 C 3.289062 17.476562 3.285156 17.476562 3.285156 17.484375 C 3.285156 17.488281 3.277344 17.496094 3.277344 17.5 C 3.082031 17.972656 2.964844 18.433594 3.199219 18.921875 C 3.3125 19.140625 3.480469 19.3125 3.695312 19.4375 C 3.632812 19.511719 3.574219 19.585938 3.523438 19.664062 C 3.261719 20.035156 3.1875 20.511719 3.402344 20.921875 C 3.554688 21.21875 3.859375 21.394531 4.175781 21.484375 C 4.285156 21.519531 4.398438 21.539062 4.511719 21.558594 C 4.488281 21.765625 4.503906 21.964844 4.558594 22.164062 C 4.761719 22.84375 5.375 23.09375 6.011719 23.285156 C 6.867188 23.542969 7.746094 23.683594 8.640625 23.707031 C 10.433594 24.488281 12.597656 24.882812 14.929688 24.882812 C 17.160156 24.882812 19.234375 24.523438 20.976562 23.808594 C 21.914062 23.792969 22.828125 23.652344 23.726562 23.382812 C 24.347656 23.199219 24.953125 22.953125 25.164062 22.289062 C 25.238281 22.058594 25.253906 21.824219 25.214844 21.589844 C 25.359375 21.550781 25.511719 21.527344 25.65625 21.488281 C 25.972656 21.398438 26.285156 21.21875 26.441406 20.921875 C 26.652344 20.515625 26.582031 20.050781 26.332031 19.675781 C 26.273438 19.59375 26.210938 19.511719 26.144531 19.4375 C 26.351562 19.316406 26.511719 19.152344 26.625 18.941406 Z M 25.214844 21.578125 C 25.214844 21.578125 25.214844 21.578125 25.214844 21.574219 C 25.242188 21.550781 25.25 21.550781 25.214844 21.578125 Z M 25.214844 21.578125 " fill-opacity="1" fill-rule="nonzero"/></g><path fill="#62442f" d="M 12.539062 17.773438 C 12.539062 17.984375 12.464844 18.164062 12.3125 18.3125 C 12.15625 18.464844 11.972656 18.539062 11.757812 18.539062 C 11.542969 18.539062 11.355469 18.464844 11.203125 18.3125 C 11.050781 18.164062 10.976562 17.984375 10.976562 17.773438 C 10.976562 17.5625 11.050781 17.382812 11.203125 17.230469 C 11.355469 17.082031 11.542969 17.007812 11.757812 17.007812 C 11.972656 17.007812 12.15625 17.082031 12.3125 17.230469 C 12.464844 17.382812 12.539062 17.5625 12.539062 17.773438 Z M 12.539062 17.773438 " fill-opacity="1" fill-rule="nonzero"/><path fill="#62442f" d="M 19.132812 17.773438 C 19.132812 17.984375 19.058594 18.164062 18.902344 18.3125 C 18.75 18.464844 18.566406 18.539062 18.351562 18.539062 C 18.132812 18.539062 17.949219 18.464844 17.796875 18.3125 C 17.644531 18.164062 17.566406 17.984375 17.566406 17.773438 C 17.566406 17.5625 17.644531 17.382812 17.796875 17.230469 C 17.949219 17.082031 18.132812 17.007812 18.351562 17.007812 C 18.566406 17.007812 18.75 17.082031 18.902344 17.230469 C 19.058594 17.382812 19.132812 17.5625 19.132812 17.773438 Z M 19.132812 17.773438 " fill-opacity="1" fill-rule="nonzero"/><path fill="#62442f" d="M 16.398438 19.742188 C 15.699219 19.742188 15.394531 19.632812 15.320312 18.949219 C 15.316406 18.941406 15.316406 18.9375 15.3125 18.929688 C 15.3125 18.917969 15.308594 18.90625 15.304688 18.898438 C 15.296875 18.886719 15.292969 18.875 15.285156 18.867188 C 15.28125 18.855469 15.273438 18.847656 15.265625 18.839844 C 15.257812 18.832031 15.246094 18.824219 15.234375 18.816406 C 15.226562 18.8125 15.214844 18.804688 15.207031 18.800781 C 15.195312 18.796875 15.183594 18.792969 15.171875 18.789062 C 15.164062 18.789062 15.160156 18.785156 15.152344 18.785156 C 15.144531 18.785156 15.140625 18.785156 15.132812 18.785156 C 15.125 18.785156 15.121094 18.78125 15.113281 18.785156 C 15.105469 18.785156 15.101562 18.789062 15.09375 18.789062 C 15.082031 18.792969 15.074219 18.796875 15.0625 18.800781 C 15.050781 18.804688 15.039062 18.8125 15.027344 18.820312 C 15.019531 18.824219 15.011719 18.832031 15.003906 18.839844 C 14.996094 18.847656 14.984375 18.855469 14.980469 18.867188 C 14.972656 18.875 14.96875 18.886719 14.964844 18.894531 C 14.957031 18.90625 14.953125 18.917969 14.953125 18.933594 C 14.953125 18.9375 14.949219 18.941406 14.945312 18.949219 C 14.871094 19.632812 14.566406 19.742188 13.867188 19.742188 C 13.761719 19.757812 13.707031 19.816406 13.707031 19.925781 C 13.707031 20.03125 13.761719 20.09375 13.867188 20.109375 C 14.457031 20.109375 14.894531 20.007812 15.132812 19.609375 C 15.371094 20.007812 15.808594 20.109375 16.398438 20.109375 C 16.453125 20.117188 16.503906 20.101562 16.546875 20.066406 C 16.59375 20.027344 16.613281 19.980469 16.613281 19.925781 C 16.613281 19.867188 16.59375 19.820312 16.546875 19.785156 C 16.503906 19.746094 16.453125 19.734375 16.398438 19.742188 Z M 16.398438 19.742188 " fill-opacity="1" fill-rule="nonzero"/><path fill="#62442f" d="M 22.253906 19.382812 C 22.148438 19.375 22.089844 19.320312 22.082031 19.214844 C 22.070312 19.113281 22.117188 19.046875 22.222656 19.019531 L 24.523438 18.636719 C 24.578125 18.617188 24.628906 18.625 24.679688 18.652344 C 24.730469 18.683594 24.757812 18.722656 24.769531 18.78125 C 24.777344 18.835938 24.765625 18.886719 24.730469 18.929688 C 24.691406 18.972656 24.644531 18.996094 24.585938 18.996094 L 22.285156 19.382812 C 22.273438 19.382812 22.265625 19.382812 22.253906 19.382812 Z M 22.253906 19.382812 " fill-opacity="1" fill-rule="nonzero"/><path fill="#62442f" d="M 24.617188 20.546875 L 24.601562 20.546875 L 22.273438 20.347656 C 22.167969 20.324219 22.121094 20.257812 22.128906 20.152344 C 22.136719 20.046875 22.199219 19.988281 22.308594 19.984375 L 24.632812 20.183594 C 24.738281 20.203125 24.789062 20.265625 24.785156 20.375 C 24.78125 20.480469 24.726562 20.539062 24.617188 20.550781 Z M 24.617188 20.546875 " fill-opacity="1" fill-rule="nonzero"/><path fill="#62442f" d="M 7.871094 19.382812 C 7.863281 19.386719 7.851562 19.386719 7.839844 19.382812 L 5.539062 18.996094 C 5.480469 18.996094 5.433594 18.972656 5.394531 18.929688 C 5.359375 18.886719 5.34375 18.835938 5.355469 18.78125 C 5.367188 18.722656 5.394531 18.683594 5.445312 18.652344 C 5.492188 18.625 5.546875 18.617188 5.601562 18.636719 L 7.902344 19.019531 C 8.007812 19.046875 8.054688 19.113281 8.042969 19.214844 C 8.035156 19.320312 7.976562 19.375 7.871094 19.382812 Z M 7.871094 19.382812 " fill-opacity="1" fill-rule="nonzero"/><path fill="#62442f" d="M 5.507812 20.546875 C 5.402344 20.535156 5.34375 20.476562 5.339844 20.371094 C 5.335938 20.265625 5.386719 20.203125 5.492188 20.183594 L 7.820312 19.984375 C 7.929688 19.988281 7.988281 20.046875 7.996094 20.152344 C 8.007812 20.257812 7.957031 20.324219 7.851562 20.347656 L 5.523438 20.546875 Z M 5.507812 20.546875 " fill-opacity="1" fill-rule="nonzero"/><path fill="#eec0c2" d="M 16.125 18.375 C 16.125 18.648438 15.679688 19.011719 15.132812 19.011719 C 14.582031 19.011719 14.136719 18.648438 14.136719 18.375 C 14.136719 18.101562 14.582031 17.878906 15.132812 17.878906 C 15.679688 17.878906 16.125 18.097656 16.125 18.375 Z M 16.125 18.375 " fill-opacity="1" fill-rule="nonzero"/><path fill="#eec0c2" d="M 10.542969 19.164062 C 10.398438 19.019531 10.230469 18.972656 10.03125 19.027344 C 9.910156 19.0625 9.816406 19.128906 9.746094 19.230469 C 9.675781 19.128906 9.578125 19.0625 9.460938 19.027344 C 9.261719 18.972656 9.09375 19.019531 8.949219 19.164062 C 8.84375 19.277344 8.792969 19.414062 8.808594 19.570312 C 8.824219 19.777344 8.917969 19.972656 9.03125 20.144531 C 9.128906 20.289062 9.253906 20.449219 9.410156 20.554688 C 9.449219 20.578125 9.488281 20.601562 9.53125 20.621094 C 9.601562 20.652344 9.671875 20.671875 9.75 20.679688 C 9.824219 20.671875 9.894531 20.652344 9.964844 20.621094 C 10.007812 20.601562 10.046875 20.578125 10.085938 20.554688 C 10.242188 20.449219 10.367188 20.289062 10.464844 20.144531 C 10.578125 19.972656 10.671875 19.777344 10.6875 19.570312 C 10.699219 19.414062 10.652344 19.277344 10.542969 19.164062 Z M 10.542969 19.164062 " fill-opacity="1" fill-rule="nonzero"/><path fill="#eec0c2" d="M 21.316406 19.164062 C 21.171875 19.019531 21 18.972656 20.804688 19.027344 C 20.683594 19.0625 20.589844 19.128906 20.519531 19.230469 C 20.449219 19.128906 20.351562 19.0625 20.234375 19.027344 C 20.035156 18.972656 19.867188 19.019531 19.722656 19.164062 C 19.617188 19.277344 19.566406 19.414062 19.582031 19.570312 C 19.597656 19.777344 19.691406 19.972656 19.804688 20.144531 C 19.902344 20.289062 20.027344 20.449219 20.183594 20.554688 C 20.222656 20.578125 20.261719 20.601562 20.304688 20.621094 C 20.449219 20.703125 20.59375 20.703125 20.738281 20.621094 C 20.777344 20.601562 20.820312 20.578125 20.855469 20.554688 C 21.011719 20.453125 21.136719 20.292969 21.234375 20.144531 C 21.347656 19.972656 21.445312 19.777344 21.460938 19.574219 C 21.472656 19.414062 21.425781 19.28125 21.316406 19.164062 Z M 21.316406 19.164062 " fill-opacity="1" fill-rule="nonzero"/><path fill="#918380" d="M 12.539062 7.304688 L 12.539062 12.125 L 5.117188 12.125 C 5.296875 11.847656 5.492188 11.570312 5.699219 11.308594 C 5.539062 9.875 5.171875 5.597656 6.488281 4.828125 C 7.644531 4.15625 10.027344 6.363281 11.246094 7.621094 C 11.671875 7.492188 12.105469 7.386719 12.539062 7.304688 Z M 12.539062 7.304688 " fill-opacity="1" fill-rule="nonzero"/><path fill="#918380" d="M 25.101562 12.746094 L 16.785156 12.746094 L 16.785156 7.214844 C 17.277344 7.285156 17.765625 7.382812 18.242188 7.511719 C 19.394531 6.3125 21.988281 3.832031 23.203125 4.546875 C 24.527344 5.328125 24.128906 9.648438 23.957031 11.054688 C 24.402344 11.578125 24.78125 12.144531 25.101562 12.746094 Z M 25.101562 12.746094 " fill-opacity="1" fill-rule="nonzero"/><path fill="#eec0c2" d="M 19.355469 8.203125 C 19.355469 8.203125 21.558594 5.683594 22.441406 6.203125 C 23.324219 6.726562 22.832031 10.078125 22.832031 10.078125 Z M 19.355469 8.203125 " fill-opacity="1" fill-rule="nonzero"/><path fill="#eec0c2" d="M 10.285156 8.351562 C 10.285156 8.351562 8.097656 5.820312 7.210938 6.339844 C 6.324219 6.855469 6.800781 10.210938 6.800781 10.210938 Z M 10.285156 8.351562 " fill-opacity="1" fill-rule="nonzero"/><g clip-path="url(#926f27d691)"><path fill="#bcaeab" d="M 26.3125 16.890625 C 22.007812 21.667969 18.25 15.238281 17.898438 14.234375 C 17.183594 12.164062 16.953125 13.644531 16.273438 13.976562 C 15.59375 14.308594 15.453125 12.078125 15.007812 12.050781 C 14.5625 12.023438 14.382812 13.773438 13.796875 13.917969 C 13.210938 14.066406 12.640625 11.773438 11.628906 14.429688 C 9.527344 19.953125 5.203125 18.496094 3.28125 17.5 C 3.28125 17.496094 3.285156 17.488281 3.289062 17.484375 C 3.289062 17.476562 3.292969 17.476562 3.292969 17.46875 C 3.386719 17.246094 3.480469 17.019531 3.578125 16.792969 C 3.695312 16.507812 3.769531 16.210938 3.796875 15.90625 C 3.8125 15.765625 3.828125 15.632812 3.851562 15.496094 C 3.851562 15.492188 3.851562 15.484375 3.851562 15.480469 C 3.863281 15.421875 3.871094 15.367188 3.878906 15.3125 C 3.890625 15.246094 3.902344 15.179688 3.917969 15.113281 C 3.925781 15.066406 3.9375 15.019531 3.945312 14.96875 C 3.957031 14.921875 3.964844 14.882812 3.976562 14.839844 C 3.980469 14.824219 3.980469 14.8125 3.988281 14.800781 C 4 14.738281 4.015625 14.675781 4.035156 14.613281 C 4.035156 14.605469 4.035156 14.601562 4.039062 14.59375 C 4.074219 14.453125 4.117188 14.316406 4.160156 14.175781 C 4.183594 14.101562 4.207031 14.03125 4.234375 13.957031 C 4.253906 13.894531 4.277344 13.835938 4.300781 13.773438 C 4.304688 13.761719 4.308594 13.75 4.3125 13.738281 C 4.328125 13.695312 4.347656 13.652344 4.363281 13.609375 C 4.402344 13.507812 4.445312 13.40625 4.492188 13.308594 C 4.519531 13.246094 4.546875 13.183594 4.574219 13.121094 C 4.605469 13.058594 4.632812 13 4.664062 12.941406 C 4.671875 12.921875 4.679688 12.902344 4.691406 12.882812 C 4.71875 12.832031 4.746094 12.777344 4.773438 12.726562 C 4.777344 12.71875 4.78125 12.707031 4.785156 12.699219 C 4.820312 12.640625 4.851562 12.578125 4.886719 12.519531 C 4.960938 12.386719 5.039062 12.257812 5.121094 12.128906 C 5.300781 11.847656 5.492188 11.570312 5.703125 11.308594 C 6.035156 10.890625 6.398438 10.5 6.792969 10.136719 C 7.144531 9.8125 7.515625 9.511719 7.90625 9.234375 C 7.960938 9.195312 8.019531 9.15625 8.074219 9.117188 C 8.304688 8.960938 8.542969 8.8125 8.789062 8.675781 C 8.875 8.625 8.964844 8.578125 9.054688 8.53125 C 9.269531 8.410156 9.496094 8.296875 9.722656 8.199219 C 9.820312 8.152344 9.921875 8.105469 10.023438 8.066406 C 10.085938 8.039062 10.148438 8.011719 10.210938 7.988281 C 10.550781 7.847656 10.894531 7.726562 11.25 7.621094 C 11.671875 7.492188 12.105469 7.386719 12.539062 7.304688 C 13.328125 7.152344 14.128906 7.078125 14.929688 7.082031 C 15.550781 7.078125 16.171875 7.125 16.785156 7.214844 C 17.277344 7.28125 17.765625 7.382812 18.246094 7.511719 C 18.664062 7.625 19.074219 7.757812 19.480469 7.917969 L 19.582031 7.957031 C 20.777344 8.425781 21.863281 9.082031 22.832031 9.917969 L 22.851562 9.933594 C 23.25 10.277344 23.621094 10.652344 23.957031 11.054688 C 24.402344 11.578125 24.78125 12.140625 25.101562 12.746094 C 25.15625 12.851562 25.207031 12.957031 25.257812 13.0625 C 25.703125 13.980469 25.972656 14.945312 26.070312 15.957031 C 26.085938 16.117188 26.113281 16.273438 26.152344 16.429688 C 26.171875 16.507812 26.195312 16.582031 26.21875 16.65625 C 26.21875 16.65625 26.21875 16.65625 26.21875 16.660156 C 26.246094 16.734375 26.273438 16.804688 26.304688 16.878906 C 26.304688 16.878906 26.304688 16.878906 26.308594 16.882812 C 26.308594 16.882812 26.3125 16.890625 26.3125 16.890625 Z M 26.3125 16.890625 " fill-opacity="1" fill-rule="nonzero"/></g><g fill="#a5784c" fill-opacity="1"><g transform="translate(28.8638, 12.32772)"><g><path d="M 5.453125 -3.34375 C 6.035156 -3 6.328125 -2.539062 6.328125 -1.96875 C 6.328125 -1.71875 6.273438 -1.476562 6.171875 -1.25 C 6.078125 -1.019531 5.9375 -0.8125 5.75 -0.625 C 5.5625 -0.4375 5.3125 -0.285156 5 -0.171875 C 4.6875 -0.0664062 4.332031 -0.015625 3.9375 -0.015625 L 1.75 -0.015625 C 1.375 -0.015625 1.101562 -0.109375 0.9375 -0.296875 C 0.769531 -0.492188 0.6875 -0.84375 0.6875 -1.34375 L 0.6875 -5.3125 C 0.6875 -5.53125 0.722656 -5.71875 0.796875 -5.875 C 0.867188 -6.039062 0.988281 -6.171875 1.15625 -6.265625 C 1.320312 -6.367188 1.519531 -6.421875 1.75 -6.421875 L 3.90625 -6.421875 C 4.53125 -6.410156 5.050781 -6.238281 5.46875 -5.90625 C 5.882812 -5.570312 6.09375 -5.144531 6.09375 -4.625 C 6.09375 -4.445312 6.078125 -4.296875 6.046875 -4.171875 C 6.023438 -4.046875 5.984375 -3.929688 5.921875 -3.828125 C 5.867188 -3.734375 5.800781 -3.644531 5.71875 -3.5625 C 5.644531 -3.488281 5.554688 -3.414062 5.453125 -3.34375 Z M 4.296875 -2.109375 C 4.296875 -2.316406 4.242188 -2.476562 4.140625 -2.59375 C 4.035156 -2.707031 3.878906 -2.785156 3.671875 -2.828125 C 3.472656 -2.878906 3.203125 -2.90625 2.859375 -2.90625 L 2.859375 -1.28125 C 3.347656 -1.28125 3.707031 -1.335938 3.9375 -1.453125 C 4.175781 -1.578125 4.296875 -1.796875 4.296875 -2.109375 Z M 4.171875 -4.625 C 4.171875 -4.882812 4.066406 -5.0625 3.859375 -5.15625 C 3.660156 -5.257812 3.328125 -5.3125 2.859375 -5.3125 L 2.859375 -3.875 C 3.148438 -3.875 3.382812 -3.894531 3.5625 -3.9375 C 3.75 -3.976562 3.894531 -4.050781 4 -4.15625 C 4.113281 -4.269531 4.171875 -4.425781 4.171875 -4.625 Z M 4.171875 -4.625 "/></g></g></g><g fill="#a5784c" fill-opacity="1"><g transform="translate(35.746779, 12.32772)"><g><path d="M 2.984375 0.0625 C 2.492188 0.0625 2.050781 -0.0195312 1.65625 -0.1875 C 1.269531 -0.363281 0.957031 -0.628906 0.71875 -0.984375 C 0.476562 -1.335938 0.359375 -1.75 0.359375 -2.21875 C 0.359375 -2.925781 0.601562 -3.488281 1.09375 -3.90625 C 1.582031 -4.332031 2.207031 -4.546875 2.96875 -4.546875 C 3.738281 -4.546875 4.363281 -4.332031 4.84375 -3.90625 C 5.320312 -3.488281 5.5625 -2.925781 5.5625 -2.21875 C 5.5625 -1.507812 5.316406 -0.953125 4.828125 -0.546875 C 4.335938 -0.140625 3.722656 0.0625 2.984375 0.0625 Z M 3.46875 -2.21875 C 3.46875 -2.550781 3.425781 -2.835938 3.34375 -3.078125 C 3.257812 -3.328125 3.140625 -3.453125 2.984375 -3.453125 C 2.878906 -3.453125 2.785156 -3.390625 2.703125 -3.265625 C 2.617188 -3.140625 2.554688 -2.984375 2.515625 -2.796875 C 2.484375 -2.617188 2.46875 -2.425781 2.46875 -2.21875 C 2.46875 -1.90625 2.507812 -1.628906 2.59375 -1.390625 C 2.6875 -1.148438 2.8125 -1.03125 2.96875 -1.03125 C 3.132812 -1.03125 3.257812 -1.144531 3.34375 -1.375 C 3.425781 -1.613281 3.46875 -1.894531 3.46875 -2.21875 Z M 3.46875 -2.21875 "/></g></g></g><g fill="#a5784c" fill-opacity="1"><g transform="translate(41.671965, 12.32772)"><g><path d="M 2.4375 -1 C 2.4375 -0.625 2.359375 -0.363281 2.203125 -0.21875 C 2.046875 -0.0703125 1.765625 0 1.359375 0 C 0.992188 0 0.742188 -0.0820312 0.609375 -0.25 C 0.484375 -0.425781 0.421875 -0.710938 0.421875 -1.109375 L 0.421875 -3.421875 C 0.421875 -3.628906 0.457031 -3.8125 0.53125 -3.96875 C 0.601562 -4.132812 0.710938 -4.257812 0.859375 -4.34375 C 1.003906 -4.4375 1.171875 -4.484375 1.359375 -4.484375 C 1.835938 -4.484375 2.148438 -4.34375 2.296875 -4.0625 C 2.660156 -4.34375 3.015625 -4.484375 3.359375 -4.484375 C 4.015625 -4.484375 4.34375 -4.171875 4.34375 -3.546875 C 4.34375 -3.296875 4.269531 -3.085938 4.125 -2.921875 C 3.976562 -2.765625 3.789062 -2.6875 3.5625 -2.6875 C 3.425781 -2.6875 3.316406 -2.710938 3.234375 -2.765625 C 3.148438 -2.828125 3.070312 -2.882812 3 -2.9375 C 2.925781 -3 2.84375 -3.03125 2.75 -3.03125 C 2.601562 -3.03125 2.5 -2.984375 2.4375 -2.890625 Z M 2.4375 -1 "/></g></g></g><g fill="#a5784c" fill-opacity="1"><g transform="translate(46.104118, 12.32772)"><g><path d="M 3.203125 -3.515625 C 3.203125 -3.660156 3.117188 -3.734375 2.953125 -3.734375 C 2.828125 -3.734375 2.71875 -3.664062 2.625 -3.53125 C 2.53125 -3.394531 2.457031 -3.226562 2.40625 -3.03125 C 2.363281 -2.832031 2.34375 -2.628906 2.34375 -2.421875 C 2.34375 -2.109375 2.4375 -1.851562 2.625 -1.65625 C 2.820312 -1.46875 3.082031 -1.375 3.40625 -1.375 C 3.71875 -1.375 3.992188 -1.410156 4.234375 -1.484375 C 4.328125 -1.503906 4.441406 -1.550781 4.578125 -1.625 C 4.710938 -1.695312 4.804688 -1.734375 4.859375 -1.734375 C 4.941406 -1.734375 5.007812 -1.71875 5.0625 -1.6875 C 5.125 -1.65625 5.164062 -1.613281 5.1875 -1.5625 C 5.207031 -1.519531 5.21875 -1.472656 5.21875 -1.421875 C 5.21875 -1.335938 5.1875 -1.234375 5.125 -1.109375 C 5.070312 -0.984375 4.984375 -0.847656 4.859375 -0.703125 C 4.734375 -0.566406 4.585938 -0.441406 4.421875 -0.328125 C 4.253906 -0.210938 4.046875 -0.117188 3.796875 -0.046875 C 3.554688 0.0234375 3.300781 0.0625 3.03125 0.0625 C 2.257812 0.0625 1.625 -0.144531 1.125 -0.5625 C 0.625 -0.976562 0.375 -1.546875 0.375 -2.265625 C 0.375 -2.734375 0.488281 -3.140625 0.71875 -3.484375 C 0.945312 -3.835938 1.257812 -4.101562 1.65625 -4.28125 C 2.050781 -4.457031 2.507812 -4.546875 3.03125 -4.546875 C 3.53125 -4.546875 3.941406 -4.488281 4.265625 -4.375 C 4.585938 -4.257812 4.816406 -4.101562 4.953125 -3.90625 C 5.085938 -3.707031 5.15625 -3.476562 5.15625 -3.21875 C 5.15625 -3.09375 5.128906 -2.96875 5.078125 -2.84375 C 5.035156 -2.71875 4.96875 -2.59375 4.875 -2.46875 C 4.78125 -2.34375 4.632812 -2.238281 4.4375 -2.15625 C 4.25 -2.082031 4.03125 -2.046875 3.78125 -2.046875 C 3.675781 -2.046875 3.585938 -2.050781 3.515625 -2.0625 C 3.441406 -2.070312 3.363281 -2.097656 3.28125 -2.140625 C 3.207031 -2.179688 3.148438 -2.25 3.109375 -2.34375 C 3.078125 -2.4375 3.0625 -2.554688 3.0625 -2.703125 C 3.0625 -2.828125 3.082031 -2.976562 3.125 -3.15625 C 3.175781 -3.332031 3.203125 -3.453125 3.203125 -3.515625 Z M 3.203125 -3.515625 "/></g></g></g><g fill="#a5784c" fill-opacity="1"><g transform="translate(51.728819, 12.32772)"><g><path d="M 2.359375 -2.625 C 2.796875 -2.632812 3.03125 -2.640625 3.0625 -2.640625 C 3.15625 -2.640625 3.222656 -2.695312 3.265625 -2.8125 C 3.296875 -2.894531 3.3125 -3.003906 3.3125 -3.140625 C 3.3125 -3.535156 3.195312 -3.734375 2.96875 -3.734375 C 2.875 -3.734375 2.785156 -3.6875 2.703125 -3.59375 C 2.617188 -3.5 2.546875 -3.363281 2.484375 -3.1875 C 2.421875 -3.019531 2.378906 -2.832031 2.359375 -2.625 Z M 3 0.0625 C 2.238281 0.0625 1.609375 -0.132812 1.109375 -0.53125 C 0.609375 -0.925781 0.359375 -1.46875 0.359375 -2.15625 C 0.359375 -2.894531 0.601562 -3.476562 1.09375 -3.90625 C 1.582031 -4.332031 2.21875 -4.546875 3 -4.546875 C 3.726562 -4.546875 4.265625 -4.414062 4.609375 -4.15625 C 4.953125 -3.894531 5.125 -3.539062 5.125 -3.09375 C 5.125 -3 5.113281 -2.910156 5.09375 -2.828125 C 5.070312 -2.753906 5.035156 -2.675781 4.984375 -2.59375 C 4.941406 -2.519531 4.878906 -2.445312 4.796875 -2.375 C 4.710938 -2.3125 4.617188 -2.253906 4.515625 -2.203125 C 4.421875 -2.148438 4.304688 -2.109375 4.171875 -2.078125 C 4.035156 -2.046875 3.890625 -2.03125 3.734375 -2.03125 L 2.40625 -2.03125 C 2.46875 -1.832031 2.578125 -1.671875 2.734375 -1.546875 C 2.898438 -1.429688 3.109375 -1.375 3.359375 -1.375 C 3.628906 -1.375 3.90625 -1.410156 4.1875 -1.484375 C 4.3125 -1.515625 4.441406 -1.5625 4.578125 -1.625 C 4.722656 -1.695312 4.828125 -1.734375 4.890625 -1.734375 C 4.992188 -1.734375 5.070312 -1.703125 5.125 -1.640625 C 5.1875 -1.578125 5.21875 -1.5 5.21875 -1.40625 C 5.21875 -1.289062 5.164062 -1.15625 5.0625 -1 C 4.96875 -0.84375 4.832031 -0.679688 4.65625 -0.515625 C 4.476562 -0.359375 4.238281 -0.222656 3.9375 -0.109375 C 3.644531 0.00390625 3.332031 0.0625 3 0.0625 Z M 3 0.0625 "/></g></g></g><g fill="#a5784c" fill-opacity="1"><g transform="translate(57.315964, 12.32772)"><g><path d="M 2.484375 -1.421875 C 2.484375 -0.910156 2.394531 -0.546875 2.21875 -0.328125 C 2.050781 -0.109375 1.796875 0 1.453125 0 C 1.097656 0 0.835938 -0.0976562 0.671875 -0.296875 C 0.515625 -0.492188 0.4375 -0.84375 0.4375 -1.34375 L 0.421875 -5.3125 C 0.421875 -5.46875 0.4375 -5.609375 0.46875 -5.734375 C 0.5 -5.859375 0.546875 -5.960938 0.609375 -6.046875 C 0.671875 -6.140625 0.742188 -6.210938 0.828125 -6.265625 C 0.921875 -6.328125 1.015625 -6.367188 1.109375 -6.390625 C 1.210938 -6.421875 1.328125 -6.4375 1.453125 -6.4375 C 1.796875 -6.4375 2.050781 -6.363281 2.21875 -6.21875 C 2.394531 -6.082031 2.484375 -5.804688 2.484375 -5.390625 Z M 2.484375 -1.421875 "/></g></g></g><g fill="#a5784c" fill-opacity="1"><g transform="translate(60.245693, 12.32772)"><g><path d="M 2.484375 -1.421875 C 2.484375 -0.910156 2.394531 -0.546875 2.21875 -0.328125 C 2.050781 -0.109375 1.796875 0 1.453125 0 C 1.097656 0 0.835938 -0.0976562 0.671875 -0.296875 C 0.515625 -0.492188 0.4375 -0.84375 0.4375 -1.34375 L 0.421875 -5.3125 C 0.421875 -5.46875 0.4375 -5.609375 0.46875 -5.734375 C 0.5 -5.859375 0.546875 -5.960938 0.609375 -6.046875 C 0.671875 -6.140625 0.742188 -6.210938 0.828125 -6.265625 C 0.921875 -6.328125 1.015625 -6.367188 1.109375 -6.390625 C 1.210938 -6.421875 1.328125 -6.4375 1.453125 -6.4375 C 1.796875 -6.4375 2.050781 -6.363281 2.21875 -6.21875 C 2.394531 -6.082031 2.484375 -5.804688 2.484375 -5.390625 Z M 2.484375 -1.421875 "/></g></g></g><g fill="#a5784c" fill-opacity="1"><g transform="translate(63.175421, 12.32772)"><g><path d="M 2.359375 -2.625 C 2.796875 -2.632812 3.03125 -2.640625 3.0625 -2.640625 C 3.15625 -2.640625 3.222656 -2.695312 3.265625 -2.8125 C 3.296875 -2.894531 3.3125 -3.003906 3.3125 -3.140625 C 3.3125 -3.535156 3.195312 -3.734375 2.96875 -3.734375 C 2.875 -3.734375 2.785156 -3.6875 2.703125 -3.59375 C 2.617188 -3.5 2.546875 -3.363281 2.484375 -3.1875 C 2.421875 -3.019531 2.378906 -2.832031 2.359375 -2.625 Z M 3 0.0625 C 2.238281 0.0625 1.609375 -0.132812 1.109375 -0.53125 C 0.609375 -0.925781 0.359375 -1.46875 0.359375 -2.15625 C 0.359375 -2.894531 0.601562 -3.476562 1.09375 -3.90625 C 1.582031 -4.332031 2.21875 -4.546875 3 -4.546875 C 3.726562 -4.546875 4.265625 -4.414062 4.609375 -4.15625 C 4.953125 -3.894531 5.125 -3.539062 5.125 -3.09375 C 5.125 -3 5.113281 -2.910156 5.09375 -2.828125 C 5.070312 -2.753906 5.035156 -2.675781 4.984375 -2.59375 C 4.941406 -2.519531 4.878906 -2.445312 4.796875 -2.375 C 4.710938 -2.3125 4.617188 -2.253906 4.515625 -2.203125 C 4.421875 -2.148438 4.304688 -2.109375 4.171875 -2.078125 C 4.035156 -2.046875 3.890625 -2.03125 3.734375 -2.03125 L 2.40625 -2.03125 C 2.46875 -1.832031 2.578125 -1.671875 2.734375 -1.546875 C 2.898438 -1.429688 3.109375 -1.375 3.359375 -1.375 C 3.628906 -1.375 3.90625 -1.410156 4.1875 -1.484375 C 4.3125 -1.515625 4.441406 -1.5625 4.578125 -1.625 C 4.722656 -1.695312 4.828125 -1.734375 4.890625 -1.734375 C 4.992188 -1.734375 5.070312 -1.703125 5.125 -1.640625 C 5.1875 -1.578125 5.21875 -1.5 5.21875 -1.40625 C 5.21875 -1.289062 5.164062 -1.15625 5.0625 -1 C 4.96875 -0.84375 4.832031 -0.679688 4.65625 -0.515625 C 4.476562 -0.359375 4.238281 -0.222656 3.9375 -0.109375 C 3.644531 0.00390625 3.332031 0.0625 3 0.0625 Z M 3 0.0625 "/></g></g></g><g fill="#62442f" fill-opacity="1"><g transform="translate(32.346252, 20.042402)"><g><path d="M 1.78125 -3.5625 C 2.050781 -3.5625 2.300781 -3.507812 2.53125 -3.40625 C 2.757812 -3.3125 2.941406 -3.171875 3.078125 -2.984375 C 3.210938 -2.804688 3.28125 -2.597656 3.28125 -2.359375 C 3.28125 -2.140625 3.21875 -1.941406 3.09375 -1.765625 C 2.976562 -1.597656 2.816406 -1.460938 2.609375 -1.359375 C 2.410156 -1.265625 2.1875 -1.21875 1.9375 -1.21875 C 1.8125 -1.21875 1.691406 -1.226562 1.578125 -1.25 C 1.472656 -1.269531 1.382812 -1.289062 1.3125 -1.3125 L 1.3125 -0.296875 C 1.3125 -0.191406 1.273438 -0.109375 1.203125 -0.046875 C 1.128906 0.015625 1.035156 0.046875 0.921875 0.046875 C 0.804688 0.046875 0.710938 0.015625 0.640625 -0.046875 C 0.578125 -0.109375 0.546875 -0.195312 0.546875 -0.3125 C 0.566406 -0.664062 0.578125 -1.0625 0.578125 -1.5 C 0.578125 -1.914062 0.566406 -2.285156 0.546875 -2.609375 L 0.53125 -2.59375 C 0.5 -2.582031 0.46875 -2.578125 0.4375 -2.578125 C 0.382812 -2.578125 0.335938 -2.609375 0.296875 -2.671875 C 0.253906 -2.734375 0.234375 -2.804688 0.234375 -2.890625 C 0.234375 -2.960938 0.253906 -3.019531 0.296875 -3.0625 C 0.335938 -3.101562 0.398438 -3.148438 0.484375 -3.203125 L 0.53125 -3.234375 L 0.53125 -3.296875 C 0.53125 -3.398438 0.554688 -3.476562 0.609375 -3.53125 C 0.671875 -3.59375 0.773438 -3.625 0.921875 -3.625 C 1.054688 -3.625 1.148438 -3.609375 1.203125 -3.578125 C 1.253906 -3.554688 1.28125 -3.535156 1.28125 -3.515625 L 1.28125 -3.5 C 1.445312 -3.539062 1.613281 -3.5625 1.78125 -3.5625 Z M 1.8125 -1.828125 C 1.988281 -1.828125 2.132812 -1.878906 2.25 -1.984375 C 2.375 -2.097656 2.4375 -2.234375 2.4375 -2.390625 C 2.4375 -2.546875 2.367188 -2.671875 2.234375 -2.765625 C 2.109375 -2.859375 1.945312 -2.90625 1.75 -2.90625 C 1.644531 -2.90625 1.492188 -2.882812 1.296875 -2.84375 C 1.296875 -2.789062 1.296875 -2.71875 1.296875 -2.625 C 1.296875 -2.488281 1.300781 -2.332031 1.3125 -2.15625 C 1.3125 -2.050781 1.3125 -1.972656 1.3125 -1.921875 C 1.363281 -1.898438 1.4375 -1.878906 1.53125 -1.859375 C 1.632812 -1.835938 1.726562 -1.828125 1.8125 -1.828125 Z M 1.8125 -1.828125 "/></g></g></g><g fill="#62442f" fill-opacity="1"><g transform="translate(36.858566, 20.042402)"><g><path d="M 2.640625 -0.734375 C 2.660156 -0.742188 2.679688 -0.75 2.703125 -0.75 C 2.804688 -0.75 2.882812 -0.71875 2.9375 -0.65625 C 3 -0.59375 3.03125 -0.507812 3.03125 -0.40625 C 3.03125 -0.226562 2.941406 -0.125 2.765625 -0.09375 C 2.609375 -0.0625 2.320312 -0.046875 1.90625 -0.046875 L 1.734375 -0.046875 C 1.546875 -0.046875 1.367188 -0.0507812 1.203125 -0.0625 C 1.035156 -0.0703125 0.828125 -0.09375 0.578125 -0.125 C 0.429688 -0.144531 0.359375 -0.242188 0.359375 -0.421875 C 0.359375 -0.515625 0.375 -0.585938 0.40625 -0.640625 C 0.4375 -0.703125 0.488281 -0.738281 0.5625 -0.75 L 0.625 -0.75 C 0.65625 -1.03125 0.671875 -1.296875 0.671875 -1.546875 L 0.640625 -1.546875 C 0.554688 -1.546875 0.492188 -1.570312 0.453125 -1.625 C 0.410156 -1.6875 0.390625 -1.773438 0.390625 -1.890625 C 0.390625 -1.984375 0.410156 -2.0625 0.453125 -2.125 C 0.492188 -2.1875 0.550781 -2.21875 0.625 -2.21875 L 0.671875 -2.21875 C 0.671875 -2.34375 0.671875 -2.582031 0.671875 -2.9375 C 0.554688 -2.976562 0.5 -3.070312 0.5 -3.21875 C 0.5 -3.332031 0.523438 -3.410156 0.578125 -3.453125 C 0.640625 -3.503906 0.734375 -3.539062 0.859375 -3.5625 C 1.023438 -3.570312 1.328125 -3.578125 1.765625 -3.578125 C 2.191406 -3.578125 2.519531 -3.566406 2.75 -3.546875 C 2.84375 -3.535156 2.914062 -3.503906 2.96875 -3.453125 C 3.03125 -3.398438 3.0625 -3.320312 3.0625 -3.21875 C 3.0625 -3.125 3.035156 -3.039062 2.984375 -2.96875 C 2.929688 -2.90625 2.863281 -2.878906 2.78125 -2.890625 C 2.46875 -2.921875 2.191406 -2.9375 1.953125 -2.9375 C 1.835938 -2.9375 1.695312 -2.929688 1.53125 -2.921875 L 1.40625 -2.921875 L 1.421875 -2.203125 L 1.53125 -2.203125 C 1.695312 -2.203125 1.90625 -2.195312 2.15625 -2.1875 L 2.484375 -2.1875 C 2.617188 -2.1875 2.6875 -2.078125 2.6875 -1.859375 C 2.6875 -1.753906 2.664062 -1.671875 2.625 -1.609375 C 2.582031 -1.554688 2.523438 -1.53125 2.453125 -1.53125 C 2.347656 -1.53125 2.265625 -1.53125 2.203125 -1.53125 L 1.53125 -1.546875 L 1.421875 -1.546875 C 1.410156 -1.234375 1.390625 -0.957031 1.359375 -0.71875 C 1.484375 -0.695312 1.644531 -0.6875 1.84375 -0.6875 C 2.125 -0.6875 2.390625 -0.703125 2.640625 -0.734375 Z M 2.640625 -0.734375 "/></g></g></g><g fill="#62442f" fill-opacity="1"><g transform="translate(41.15114, 20.042402)"><g><path d="M 2.546875 -3.53125 C 2.640625 -3.519531 2.710938 -3.488281 2.765625 -3.4375 C 2.828125 -3.394531 2.859375 -3.316406 2.859375 -3.203125 C 2.859375 -3.078125 2.828125 -2.988281 2.765625 -2.9375 C 2.703125 -2.882812 2.609375 -2.859375 2.484375 -2.859375 C 2.234375 -2.878906 2.03125 -2.890625 1.875 -2.890625 C 1.851562 -2.503906 1.835938 -2.117188 1.828125 -1.734375 C 1.816406 -1.359375 1.8125 -0.875 1.8125 -0.28125 C 1.8125 -0.15625 1.785156 -0.0664062 1.734375 -0.015625 C 1.679688 0.0234375 1.585938 0.046875 1.453125 0.046875 C 1.304688 0.046875 1.195312 0.0195312 1.125 -0.03125 C 1.0625 -0.0820312 1.03125 -0.164062 1.03125 -0.28125 C 1.03125 -0.78125 1.046875 -1.265625 1.078125 -1.734375 L 1.140625 -2.890625 C 0.984375 -2.878906 0.859375 -2.867188 0.765625 -2.859375 L 0.546875 -2.84375 C 0.535156 -2.84375 0.515625 -2.84375 0.484375 -2.84375 C 0.390625 -2.84375 0.3125 -2.875 0.25 -2.9375 C 0.1875 -3.007812 0.15625 -3.097656 0.15625 -3.203125 C 0.15625 -3.296875 0.179688 -3.363281 0.234375 -3.40625 C 0.285156 -3.457031 0.359375 -3.492188 0.453125 -3.515625 C 0.578125 -3.523438 0.75 -3.535156 0.96875 -3.546875 C 1.1875 -3.554688 1.390625 -3.5625 1.578125 -3.5625 C 1.734375 -3.5625 1.910156 -3.554688 2.109375 -3.546875 C 2.304688 -3.546875 2.453125 -3.539062 2.546875 -3.53125 Z M 2.546875 -3.53125 "/></g></g></g><g fill="#62442f" fill-opacity="1"><g transform="translate(45.193316, 20.042402)"><g/></g></g><g fill="#62442f" fill-opacity="1"><g transform="translate(48.055033, 20.042402)"><g><path d="M 3.25 -1.640625 C 3.363281 -1.640625 3.457031 -1.609375 3.53125 -1.546875 C 3.601562 -1.484375 3.640625 -1.394531 3.640625 -1.28125 C 3.640625 -1.039062 3.566406 -0.816406 3.421875 -0.609375 C 3.285156 -0.410156 3.097656 -0.253906 2.859375 -0.140625 C 2.617188 -0.0351562 2.347656 0.015625 2.046875 0.015625 C 1.691406 0.015625 1.378906 -0.0507812 1.109375 -0.1875 C 0.835938 -0.332031 0.625 -0.535156 0.46875 -0.796875 C 0.320312 -1.054688 0.25 -1.359375 0.25 -1.703125 C 0.25 -2.054688 0.316406 -2.378906 0.453125 -2.671875 C 0.597656 -2.972656 0.796875 -3.207031 1.046875 -3.375 C 1.296875 -3.550781 1.566406 -3.640625 1.859375 -3.640625 C 2.253906 -3.640625 2.554688 -3.550781 2.765625 -3.375 L 2.765625 -3.390625 C 2.765625 -3.460938 2.796875 -3.519531 2.859375 -3.5625 C 2.921875 -3.613281 3.003906 -3.640625 3.109375 -3.640625 C 3.222656 -3.640625 3.3125 -3.609375 3.375 -3.546875 C 3.4375 -3.492188 3.46875 -3.414062 3.46875 -3.3125 L 3.46875 -2.828125 C 3.457031 -2.523438 3.332031 -2.375 3.09375 -2.375 C 3.039062 -2.375 2.988281 -2.382812 2.9375 -2.40625 C 2.882812 -2.425781 2.847656 -2.453125 2.828125 -2.484375 C 2.734375 -2.609375 2.660156 -2.695312 2.609375 -2.75 C 2.554688 -2.8125 2.484375 -2.863281 2.390625 -2.90625 C 2.304688 -2.957031 2.195312 -2.984375 2.0625 -2.984375 C 1.882812 -2.984375 1.710938 -2.925781 1.546875 -2.8125 C 1.390625 -2.695312 1.257812 -2.539062 1.15625 -2.34375 C 1.050781 -2.144531 1 -1.929688 1 -1.703125 C 1 -1.492188 1.046875 -1.3125 1.140625 -1.15625 C 1.234375 -1 1.359375 -0.875 1.515625 -0.78125 C 1.679688 -0.6875 1.859375 -0.640625 2.046875 -0.640625 C 2.191406 -0.640625 2.328125 -0.664062 2.453125 -0.71875 C 2.578125 -0.78125 2.675781 -0.859375 2.75 -0.953125 C 2.832031 -1.054688 2.875 -1.171875 2.875 -1.296875 C 2.875 -1.398438 2.90625 -1.484375 2.96875 -1.546875 C 3.039062 -1.609375 3.132812 -1.640625 3.25 -1.640625 Z M 3.25 -1.640625 "/></g></g></g><g fill="#62442f" fill-opacity="1"><g transform="translate(52.868852, 20.042402)"><g><path d="M 3.171875 -0.546875 L 3.234375 -0.359375 C 3.242188 -0.316406 3.25 -0.28125 3.25 -0.25 C 3.25 -0.15625 3.207031 -0.078125 3.125 -0.015625 C 3.039062 0.0351562 2.941406 0.0625 2.828125 0.0625 C 2.742188 0.0625 2.671875 0.0390625 2.609375 0 C 2.546875 -0.0390625 2.503906 -0.09375 2.484375 -0.15625 L 2.296875 -0.8125 L 1.265625 -0.828125 L 1.078125 -0.171875 C 1.054688 -0.0976562 1.015625 -0.0390625 0.953125 0 C 0.890625 0.03125 0.816406 0.046875 0.734375 0.046875 C 0.617188 0.046875 0.519531 0.0195312 0.4375 -0.03125 C 0.351562 -0.09375 0.3125 -0.164062 0.3125 -0.25 C 0.3125 -0.289062 0.316406 -0.328125 0.328125 -0.359375 L 0.90625 -2.125 L 1.203125 -3 C 1.273438 -3.226562 1.359375 -3.390625 1.453125 -3.484375 C 1.546875 -3.585938 1.671875 -3.640625 1.828125 -3.640625 C 1.972656 -3.640625 2.085938 -3.59375 2.171875 -3.5 C 2.265625 -3.414062 2.347656 -3.265625 2.421875 -3.046875 C 2.609375 -2.453125 2.769531 -1.925781 2.90625 -1.46875 L 3.046875 -1.46875 C 3.210938 -1.46875 3.296875 -1.359375 3.296875 -1.140625 C 3.296875 -0.921875 3.234375 -0.8125 3.109375 -0.8125 L 3.09375 -0.8125 Z M 2.125 -1.484375 L 2.0625 -1.71875 L 1.9375 -2.171875 L 1.890625 -2.34375 C 1.867188 -2.414062 1.847656 -2.46875 1.828125 -2.5 C 1.816406 -2.539062 1.804688 -2.5625 1.796875 -2.5625 C 1.773438 -2.5625 1.757812 -2.546875 1.75 -2.515625 C 1.738281 -2.484375 1.722656 -2.425781 1.703125 -2.34375 L 1.671875 -2.203125 L 1.453125 -1.484375 Z M 2.125 -1.484375 "/></g></g></g><g fill="#62442f" fill-opacity="1"><g transform="translate(57.452709, 20.042402)"><g><path d="M 3.03125 -0.671875 C 3.09375 -0.640625 3.140625 -0.601562 3.171875 -0.5625 C 3.203125 -0.519531 3.21875 -0.460938 3.21875 -0.390625 C 3.21875 -0.296875 3.1875 -0.210938 3.125 -0.140625 C 3.0625 -0.078125 2.976562 -0.046875 2.875 -0.046875 C 2.832031 -0.046875 2.78125 -0.0507812 2.71875 -0.0625 C 2.664062 -0.0820312 2.625 -0.109375 2.59375 -0.140625 L 1.28125 -0.9375 L 1.28125 -0.296875 C 1.28125 -0.191406 1.25 -0.109375 1.1875 -0.046875 C 1.125 0.00390625 1.035156 0.03125 0.921875 0.03125 C 0.796875 0.03125 0.695312 0 0.625 -0.0625 C 0.5625 -0.132812 0.53125 -0.226562 0.53125 -0.34375 C 0.53125 -0.832031 0.523438 -1.382812 0.515625 -2 L 0.515625 -2.515625 L 0.46875 -2.5 C 0.445312 -2.488281 0.429688 -2.484375 0.421875 -2.484375 C 0.285156 -2.484375 0.21875 -2.609375 0.21875 -2.859375 C 0.21875 -2.929688 0.242188 -2.992188 0.296875 -3.046875 C 0.347656 -3.109375 0.414062 -3.164062 0.5 -3.21875 L 0.5 -3.265625 C 0.5 -3.484375 0.648438 -3.59375 0.953125 -3.59375 C 1.046875 -3.59375 1.113281 -3.582031 1.15625 -3.5625 C 1.195312 -3.550781 1.21875 -3.53125 1.21875 -3.5 C 1.21875 -3.488281 1.222656 -3.484375 1.234375 -3.484375 C 1.472656 -3.554688 1.648438 -3.59375 1.765625 -3.59375 C 2.078125 -3.59375 2.34375 -3.539062 2.5625 -3.4375 C 2.789062 -3.34375 2.96875 -3.207031 3.09375 -3.03125 C 3.21875 -2.863281 3.28125 -2.671875 3.28125 -2.453125 C 3.28125 -2.117188 3.140625 -1.859375 2.859375 -1.671875 C 2.585938 -1.484375 2.234375 -1.382812 1.796875 -1.375 Z M 1.78125 -2.921875 C 1.625 -2.921875 1.453125 -2.882812 1.265625 -2.8125 C 1.273438 -2.65625 1.28125 -2.382812 1.28125 -2 L 1.28125 -1.953125 C 1.375 -1.941406 1.519531 -1.9375 1.71875 -1.9375 C 1.9375 -1.9375 2.109375 -1.976562 2.234375 -2.0625 C 2.367188 -2.15625 2.4375 -2.28125 2.4375 -2.4375 C 2.4375 -2.582031 2.378906 -2.695312 2.265625 -2.78125 C 2.148438 -2.875 1.988281 -2.921875 1.78125 -2.921875 Z M 1.78125 -2.921875 "/></g></g></g><g fill="#62442f" fill-opacity="1"><g transform="translate(62.011016, 20.042402)"><g><path d="M 2.640625 -0.734375 C 2.660156 -0.742188 2.679688 -0.75 2.703125 -0.75 C 2.804688 -0.75 2.882812 -0.71875 2.9375 -0.65625 C 3 -0.59375 3.03125 -0.507812 3.03125 -0.40625 C 3.03125 -0.226562 2.941406 -0.125 2.765625 -0.09375 C 2.609375 -0.0625 2.320312 -0.046875 1.90625 -0.046875 L 1.734375 -0.046875 C 1.546875 -0.046875 1.367188 -0.0507812 1.203125 -0.0625 C 1.035156 -0.0703125 0.828125 -0.09375 0.578125 -0.125 C 0.429688 -0.144531 0.359375 -0.242188 0.359375 -0.421875 C 0.359375 -0.515625 0.375 -0.585938 0.40625 -0.640625 C 0.4375 -0.703125 0.488281 -0.738281 0.5625 -0.75 L 0.625 -0.75 C 0.65625 -1.03125 0.671875 -1.296875 0.671875 -1.546875 L 0.640625 -1.546875 C 0.554688 -1.546875 0.492188 -1.570312 0.453125 -1.625 C 0.410156 -1.6875 0.390625 -1.773438 0.390625 -1.890625 C 0.390625 -1.984375 0.410156 -2.0625 0.453125 -2.125 C 0.492188 -2.1875 0.550781 -2.21875 0.625 -2.21875 L 0.671875 -2.21875 C 0.671875 -2.34375 0.671875 -2.582031 0.671875 -2.9375 C 0.554688 -2.976562 0.5 -3.070312 0.5 -3.21875 C 0.5 -3.332031 0.523438 -3.410156 0.578125 -3.453125 C 0.640625 -3.503906 0.734375 -3.539062 0.859375 -3.5625 C 1.023438 -3.570312 1.328125 -3.578125 1.765625 -3.578125 C 2.191406 -3.578125 2.519531 -3.566406 2.75 -3.546875 C 2.84375 -3.535156 2.914062 -3.503906 2.96875 -3.453125 C 3.03125 -3.398438 3.0625 -3.320312 3.0625 -3.21875 C 3.0625 -3.125 3.035156 -3.039062 2.984375 -2.96875 C 2.929688 -2.90625 2.863281 -2.878906 2.78125 -2.890625 C 2.46875 -2.921875 2.191406 -2.9375 1.953125 -2.9375 C 1.835938 -2.9375 1.695312 -2.929688 1.53125 -2.921875 L 1.40625 -2.921875 L 1.421875 -2.203125 L 1.53125 -2.203125 C 1.695312 -2.203125 1.90625 -2.195312 2.15625 -2.1875 L 2.484375 -2.1875 C 2.617188 -2.1875 2.6875 -2.078125 2.6875 -1.859375 C 2.6875 -1.753906 2.664062 -1.671875 2.625 -1.609375 C 2.582031 -1.554688 2.523438 -1.53125 2.453125 -1.53125 C 2.347656 -1.53125 2.265625 -1.53125 2.203125 -1.53125 L 1.53125 -1.546875 L 1.421875 -1.546875 C 1.410156 -1.234375 1.390625 -0.957031 1.359375 -0.71875 C 1.484375 -0.695312 1.644531 -0.6875 1.84375 -0.6875 C 2.125 -0.6875 2.390625 -0.703125 2.640625 -0.734375 Z M 2.640625 -0.734375 "/></g></g></g></svg>