<?xml version="1.0" encoding="utf-8"?>
<!-- Generator: Adobe Illustrator 27.4.0, SVG Export Plug-In . SVG Version: 6.00 Build 0)  -->
<svg version="1.1" id="圖層_1" xmlns="http://www.w3.org/2000/svg" xmlns:xlink="http://www.w3.org/1999/xlink" x="0px" y="0px"
	 viewBox="0 0 1200 600" style="enable-background:new 0 0 1200 600;" xml:space="preserve">
<style type="text/css">
	.st0{clip-path:url(#SVGID_00000022550639082472568130000013442193136167856291_);}
	.st1{clip-path:url(#SVGID_00000182486340828918301630000009924029539978806963_);fill:#00CC99;}
	.st2{clip-path:url(#SVGID_00000130623085037789343100000017175775622332347538_);}
	.st3{clip-path:url(#SVGID_00000022545687031301468840000003527942614223258020_);fill:#00CC99;}
	.st4{clip-path:url(#SVGID_00000090999597013992731750000011624897503350497726_);}
	.st5{clip-path:url(#SVGID_00000111184300137035659260000000318102389394252469_);fill:#00CC99;}
	.st6{clip-path:url(#SVGID_00000065059302773247367430000014007152565493147567_);}
	.st7{clip-path:url(#SVGID_00000091698093052626431180000002877919901025576612_);fill:#00CC99;}
	.st8{clip-path:url(#SVGID_00000088099140243553819680000011872088069648266117_);}
	.st9{clip-path:url(#SVGID_00000094598189717484379430000015263488471732414858_);fill:#00CC99;}
	.st10{clip-path:url(#SVGID_00000134932007695825835520000003110289730397522622_);}
	.st11{clip-path:url(#SVGID_00000114075610081622801720000014220939434507651228_);fill:#00CC99;}
	.st12{clip-path:url(#SVGID_00000165914239852321371540000014986270309707572866_);}
	.st13{clip-path:url(#SVGID_00000037666860650929556150000015535846666645139116_);fill:#00CC99;}
	.st14{clip-path:url(#SVGID_00000038372115486877067530000016930806295666695088_);}
	.st15{clip-path:url(#SVGID_00000091719438761219788730000011608044621239360700_);fill:#00CC99;}
	.st16{clip-path:url(#SVGID_00000106856718333857183710000002753297797242116271_);}
	.st17{clip-path:url(#SVGID_00000000189139254074487700000016463969224617966732_);fill:#00CC99;}
	.st18{clip-path:url(#SVGID_00000181773731959459292950000001063003694656229770_);}
	.st19{clip-path:url(#SVGID_00000183216297900821482300000008785126777265813390_);fill:#00CC99;}
	.st20{clip-path:url(#SVGID_00000167366612639270293060000015884749929421111743_);}
	.st21{clip-path:url(#SVGID_00000160162566075877187830000010203927607782903437_);fill:#00CC99;}
	.st22{clip-path:url(#SVGID_00000147179668946279910190000010063269029644347047_);}
	.st23{clip-path:url(#SVGID_00000139266220926720881600000003146191524285503650_);fill:#00CC99;}
	.st24{clip-path:url(#SVGID_00000075840847999742713030000012612770781634767006_);}
	.st25{clip-path:url(#SVGID_00000083797937414865909940000002812488846349257150_);fill:#00CC99;}
	.st26{clip-path:url(#SVGID_00000054250293424882655180000006432572118651493266_);}
	.st27{clip-path:url(#SVGID_00000144321059153349296450000009965857658109221300_);fill:#00CC99;}
	.st28{clip-path:url(#SVGID_00000015326652506004919470000001248010525200881329_);}
	.st29{clip-path:url(#SVGID_00000146480690485148672740000004900523188011602570_);fill:#00CC99;}
	.st30{clip-path:url(#SVGID_00000085247826456115613210000016899342232727357631_);}
	.st31{clip-path:url(#SVGID_00000024686210359394065550000009413755732415518385_);fill:#00CC99;}
	.st32{clip-path:url(#SVGID_00000139261157451790812980000007464277162690595464_);}
	.st33{clip-path:url(#SVGID_00000033338487478260650770000012716996956931479218_);fill:#00CC99;}
	.st34{clip-path:url(#SVGID_00000128453190024210552480000012239338614002360985_);}
	.st35{clip-path:url(#SVGID_00000048485435468410727070000003690455518597819267_);fill:#00CC99;}
	.st36{clip-path:url(#SVGID_00000134209750813067245180000004900069742976768428_);}
	.st37{clip-path:url(#SVGID_00000044143547449642644240000017966023969249186704_);fill:#00CC99;}
	.st38{clip-path:url(#SVGID_00000031206775941436896680000016880402459728358302_);}
	.st39{clip-path:url(#SVGID_00000044870057519645428880000012768668305291642249_);fill:#00CC99;}
	.st40{clip-path:url(#SVGID_00000099637104142384020330000009467018829169433497_);}
	.st41{clip-path:url(#SVGID_00000141454334544105606990000002179671310925455763_);fill:#00CC99;}
	.st42{clip-path:url(#SVGID_00000000214807731064352620000007514994242155723172_);}
	.st43{clip-path:url(#SVGID_00000029041965180454882960000000910515928901113267_);fill:#00CC99;}
	.st44{clip-path:url(#SVGID_00000161598061459272363220000013559484026257570693_);}
	.st45{clip-path:url(#SVGID_00000134215779435784068800000016745627699168159629_);fill:#00CC99;}
	.st46{clip-path:url(#SVGID_00000163049983344342868900000014006936606768387732_);}
	.st47{clip-path:url(#SVGID_00000036931797384873567630000006984812344356971660_);fill:#00CC99;}
</style>
<g>
	<defs>
		<path id="SVGID_1_" d="M343.11,283.55l-57.75-100.09c-4.55-7.89-15.73-14.35-24.84-14.35H145.01c-9.11,0-20.29,6.46-24.84,14.35
			L62.42,283.55c-4.55,7.89-4.55,20.81,0,28.7l57.75,100.09c4.55,7.89,15.73,14.35,24.84,14.35h115.51
			c9.11,0,20.29-6.46,24.84-14.35l57.75-100.09C347.66,304.35,347.66,291.44,343.11,283.55 M319.91,302.82l-54.31,94.13
			c-1.22,2.12-6.08,4.92-8.52,4.92H148.45c-2.44,0-7.3-2.81-8.52-4.92l-54.31-94.13c-1.22-2.12-1.22-7.73,0-9.85l54.31-94.13
			c1.22-2.12,6.08-4.92,8.52-4.92h108.62c2.44,0,7.3,2.81,8.52,4.92l54.31,94.13C321.13,295.09,321.13,300.7,319.91,302.82"/>
	</defs>
	<clipPath id="SVGID_00000115513909618887512160000014516192888172175770_">
		<use xlink:href="#SVGID_1_"  style="overflow:visible;"/>
	</clipPath>
	<g style="clip-path:url(#SVGID_00000115513909618887512160000014516192888172175770_);">
		<defs>
			<rect id="SVGID_00000069391273535582645780000006484927856338472357_" width="1200" height="600"/>
		</defs>
		<clipPath id="SVGID_00000144336762032913918910000004850912948632073857_">
			<use xlink:href="#SVGID_00000069391273535582645780000006484927856338472357_"  style="overflow:visible;"/>
		</clipPath>
		
			<rect x="54" y="164.1" style="clip-path:url(#SVGID_00000144336762032913918910000004850912948632073857_);fill:#00CC99;" width="297.52" height="267.58"/>
	</g>
</g>
<g>
	<defs>
		<rect id="SVGID_00000090978954637629347880000002687539964993228428_" x="116.94" y="299.58" width="85.83" height="18.23"/>
	</defs>
	<clipPath id="SVGID_00000167393469765075059130000004638397321672277674_">
		<use xlink:href="#SVGID_00000090978954637629347880000002687539964993228428_"  style="overflow:visible;"/>
	</clipPath>
	<g style="clip-path:url(#SVGID_00000167393469765075059130000004638397321672277674_);">
		<defs>
			<rect id="SVGID_00000103957245528051189810000004371300557057839526_" width="1200" height="600"/>
		</defs>
		<clipPath id="SVGID_00000035529855438656800150000000422653716502137272_">
			<use xlink:href="#SVGID_00000103957245528051189810000004371300557057839526_"  style="overflow:visible;"/>
		</clipPath>
		
			<rect x="111.94" y="294.58" style="clip-path:url(#SVGID_00000035529855438656800150000000422653716502137272_);fill:#00CC99;" width="95.83" height="28.23"/>
	</g>
</g>
<g>
	<defs>
		<rect id="SVGID_00000025435491371568433000000007315171849865099406_" x="133.76" y="332.26" width="69" height="18.23"/>
	</defs>
	<clipPath id="SVGID_00000125564377380071707770000011447061649033235382_">
		<use xlink:href="#SVGID_00000025435491371568433000000007315171849865099406_"  style="overflow:visible;"/>
	</clipPath>
	<g style="clip-path:url(#SVGID_00000125564377380071707770000011447061649033235382_);">
		<defs>
			<rect id="SVGID_00000040559436551344938530000002093096218946619557_" width="1200" height="600"/>
		</defs>
		<clipPath id="SVGID_00000102517754361349633530000003367829846623198637_">
			<use xlink:href="#SVGID_00000040559436551344938530000002093096218946619557_"  style="overflow:visible;"/>
		</clipPath>
		
			<rect x="128.76" y="327.26" style="clip-path:url(#SVGID_00000102517754361349633530000003367829846623198637_);fill:#00CC99;" width="79" height="28.23"/>
	</g>
</g>
<g>
	<defs>
		<rect id="SVGID_00000054961989333495868030000017433591694885888444_" x="150.59" y="364.95" width="52.17" height="18.23"/>
	</defs>
	<clipPath id="SVGID_00000124154181971281119050000006607079917404557697_">
		<use xlink:href="#SVGID_00000054961989333495868030000017433591694885888444_"  style="overflow:visible;"/>
	</clipPath>
	<g style="clip-path:url(#SVGID_00000124154181971281119050000006607079917404557697_);">
		<defs>
			<rect id="SVGID_00000049195668964850275690000003932586725856276614_" width="1200" height="600"/>
		</defs>
		<clipPath id="SVGID_00000129928302074867657470000001855484389191523989_">
			<use xlink:href="#SVGID_00000049195668964850275690000003932586725856276614_"  style="overflow:visible;"/>
		</clipPath>
		
			<rect x="145.59" y="359.95" style="clip-path:url(#SVGID_00000129928302074867657470000001855484389191523989_);fill:#00CC99;" width="62.17" height="28.23"/>
	</g>
</g>
<g>
	<defs>
		<path id="SVGID_00000064340902717860478050000012368134777880622473_" d="M547.15,262.57v0.33c0,2.95-1.47,4.43-4.42,4.43H411.71
			c-2.95,0-4.42-1.48-4.42-4.43v-0.33c0-2.95,1.47-4.42,4.42-4.42h57.15v-26.06c0-2.95,1.47-4.42,4.42-4.42h7.86
			c2.95,0,4.42,1.47,4.42,4.42v26.06h57.16C545.67,258.15,547.15,259.62,547.15,262.57 M457.73,296
			c-7.7,24.58-18.51,47.36-33.41,69.32c-1.64,2.29-3.6,2.62-6.06,1.31l-5.08-2.79c-2.62-1.47-3.11-3.6-1.47-6.06
			c12.45-19.17,22.76-41.62,30.46-66.86c0.82-2.79,2.78-3.77,5.57-2.79l7.21,2.46C457.57,291.41,458.55,293.38,457.73,296
			 M508.99,289.61c13.76,23.76,25.71,46.87,35.37,69.32c1.15,2.62,0.33,4.75-2.29,5.9l-6.55,2.78c-2.62,1.15-4.59,0.16-5.73-2.46
			c-10.32-24.58-21.78-47.52-33.57-68.5c-1.47-2.62-0.82-4.75,1.64-6.06l5.24-2.79C505.55,286.49,507.52,287.15,508.99,289.61"/>
	</defs>
	<clipPath id="SVGID_00000101794546410186970920000002918903035512579733_">
		<use xlink:href="#SVGID_00000064340902717860478050000012368134777880622473_"  style="overflow:visible;"/>
	</clipPath>
	<g style="clip-path:url(#SVGID_00000101794546410186970920000002918903035512579733_);">
		<defs>
			<rect id="SVGID_00000114045517880350617290000012788459826158051512_" width="1200" height="600"/>
		</defs>
		<clipPath id="SVGID_00000018195888069830935740000004059854786344659628_">
			<use xlink:href="#SVGID_00000114045517880350617290000012788459826158051512_"  style="overflow:visible;"/>
		</clipPath>
		
			<rect x="402.29" y="222.67" style="clip-path:url(#SVGID_00000018195888069830935740000004059854786344659628_);fill:#00CC99;" width="149.86" height="150.42"/>
	</g>
</g>
<g>
	<defs>
		<path id="SVGID_00000100346441355886792130000014650027575130445956_" d="M655.07,229.79c-0.66,1.31-1.31,2.95-2.29,4.92h49.46
			c2.95,0,4.42,1.47,4.42,4.42v0.33c0,2.29-0.49,3.77-1.8,5.57c-3.6,4.42-8.84,9.83-15.56,16.22h44.38c2.95,0,4.42,1.47,4.42,4.42
			v85.87c0,17.37-2.13,19.66-21.62,19.66c-1.97,0-8.68-0.33-19.82-0.65c-2.95-0.16-4.58-1.64-4.58-4.43
			c-0.16-2.78,1.47-4.26,4.58-4.1c10.48,0.33,16.38,0.82,18.02,0.82c7.04,0,7.21-0.16,7.21-10.82V333.2h-90.73
			c-2.29,13.44-7.04,25.73-15.07,37.53c-1.64,2.46-3.93,2.78-6.22,0.98l-4.75-3.93c-2.13-1.8-2.46-3.77-1.15-6.06
			c9.99-16.39,13.92-35.89,13.92-69.64v-13.27l-6.88,5.57c-2.46,1.97-4.75,1.47-6.06-1.31l-1.64-3.28
			c-1.15-2.46-0.82-4.26,1.31-6.06c15.23-12.78,27.19-28.84,35.87-47.85c1.15-2.46,2.95-3.28,5.57-2.79l6.06,1.15
			C655.24,224.88,656.38,227.01,655.07,229.79z M632.47,325.17h35.05v-24.42h-33.41C633.94,309.6,633.45,317.47,632.47,325.17z
			 M634.11,292.88h33.41v-23.27h-33.41V292.88z M634.93,261.26h37.5c5.24-4.75,11.14-10.82,17.85-18.52h-42.09
			C645.08,247.98,640.82,254.05,634.93,261.26z M683.57,292.88h38.32v-23.27h-38.32V292.88z M683.57,325.17h38.32v-24.42h-38.32
			V325.17z"/>
	</defs>
	<clipPath id="SVGID_00000158722973111572501020000010170891054637868205_">
		<use xlink:href="#SVGID_00000100346441355886792130000014650027575130445956_"  style="overflow:visible;"/>
	</clipPath>
	<g style="clip-path:url(#SVGID_00000158722973111572501020000010170891054637868205_);">
		<defs>
			<rect id="SVGID_00000011726745486075314880000011518211854026799795_" width="1200" height="600"/>
		</defs>
		<clipPath id="SVGID_00000098915117616505682220000003397777163348587410_">
			<use xlink:href="#SVGID_00000011726745486075314880000011518211854026799795_"  style="overflow:visible;"/>
		</clipPath>
		
			<rect x="597.67" y="217.94" style="clip-path:url(#SVGID_00000098915117616505682220000003397777163348587410_);fill:#00CC99;" width="145.43" height="159.91"/>
	</g>
</g>
<g>
	<defs>
		<path id="SVGID_00000137118355295104886970000011808814073608730042_" d="M918.41,312.06c0,2.46-0.82,3.93-2.95,5.24
			c-10.81,6.72-23.91,13.27-39.14,19.5h63.54c2.95,0,4.42,1.47,4.42,4.43c0,2.46-1.47,3.77-4.42,3.77h-58.79v16.72
			c0,9.5-2.46,11.14-21.45,11.14c-6.55,0-14.08-0.16-22.76-0.66c-2.62-0.16-4.26-1.64-4.42-4.43c-0.16-2.78,1.47-4.26,4.58-4.1
			c10.65,0.33,17.52,0.82,20.8,0.82c7.21,0,6.39,0.82,6.39-6.72v-12.78h-63.54c-2.95,0-4.42-1.47-4.42-4.42
			c0-2.46,1.47-3.77,4.42-3.77h63.54v-3.11c0-2.95,1.47-4.43,4.42-4.43h4.58c8.03-3.28,16.87-7.54,27.68-13.27h-74.35
			c-2.95,0-4.42-1.47-4.42-4.42c0-1.97,1.47-3.11,4.42-3.11h87.45C916.94,308.45,918.41,309.76,918.41,312.06 M808.52,236.35
			c9.34-0.98,20.31-2.95,32.92-5.41c2.95-0.66,4.75,0.66,5.24,3.28c0.49,2.62-0.66,4.42-3.6,4.92c-7.37,1.47-14.9,2.62-22.11,3.77
			l0.33,8.85h20.47c2.95,0,4.42,1.47,4.42,4.42c0,1.31-1.47,1.97-4.42,1.97h-20.14l0.49,11.96h19.65c2.95,0,4.42,1.48,4.42,4.43
			c0,1.31-1.47,2.13-4.42,2.13h-19.33l0.49,12.45h94.66l0.33-12.45h-19.16c-2.95,0-4.42-1.48-4.42-4.43c0-1.31,1.47-2.13,4.42-2.13
			h19.49l0.33-11.96h-19.82c-2.95,0-4.42-1.47-4.42-4.42c0-1.31,1.47-1.97,4.42-1.97h20.14l0.49-11.47h-21.62
			c-2.95,0-4.42-1.47-4.42-4.42c0-2.13,1.47-3.28,4.42-3.28h33.9c2.95,0,4.59,1.64,4.42,4.59l-2.29,51.95h5.24
			c2.95,0,4.42,1.48,4.42,4.43v18.03c0,2.95-1.47,4.42-4.42,4.42h-7.37c-2.95,0-4.42-1.47-4.42-4.42v-14.91H813.27v14.91
			c0,2.95-1.47,4.42-4.42,4.42h-7.37c-2.95,0-4.42-1.47-4.42-4.42v-18.03c0-2.95,1.47-4.43,4.42-4.43h5.08l-2.13-48.01
			C804.26,238.32,805.74,236.68,808.52,236.35 M889.75,232.74c-2.46,2.46-5.41,5.08-9.17,8.03l8.84,6.06
			c2.46,1.8,2.78,3.93,0.82,6.23l-1.97,2.46l0.16,0.16c3.11,1.15,3.77,3.6,1.47,5.9c-2.46,2.62-5.57,5.24-9.34,8.19l8.84,6.06
			c2.46,1.8,2.62,3.77,0.82,6.23l-0.49,0.66c-1.8,2.29-3.93,2.46-6.39,0.66c-4.91-3.61-8.68-6.23-11.14-8.03
			c-4.42,2.62-10.15,5.57-16.87,8.19c-2.46,0.98-4.26,0.49-6.06-1.15c-2.13-1.97-1.47-4.1,1.64-5.41c3.93-1.8,8.19-4.1,12.77-6.88
			c-4.75-2.78-8.68-5.08-11.79-6.55c-2.78-1.47-3.44-3.6-1.47-6.06l1.31-1.64l-1.97-1.8c-2.46-2.29-1.97-4.75,1.15-6.06
			c3.93-1.64,8.19-3.93,12.77-6.88c-4.75-2.79-8.68-5.08-11.79-6.55c-2.78-1.48-3.28-3.61-1.47-6.06c1.31-1.8,3.11-2.13,5.57-0.98
			c6.71,2.95,11.79,5.57,15.72,7.86c2.62-2.13,5.41-4.59,8.52-7.86c1.64-1.97,3.6-2.46,6.06-1.47l1.97,0.82
			C891.39,228.16,892.04,230.45,889.75,232.74 M854.05,255.19c7.53,3.44,13.43,6.72,17.69,9.18c3.11-2.46,6.72-5.9,10.81-10.65
			c-2.95-1.97-6.22-4.42-10.32-7.21C867.64,249.3,861.58,252.24,854.05,255.19"/>
	</defs>
	<clipPath id="SVGID_00000043447139638206225460000015472289260861149080_">
		<use xlink:href="#SVGID_00000137118355295104886970000011808814073608730042_"  style="overflow:visible;"/>
	</clipPath>
	<g style="clip-path:url(#SVGID_00000043447139638206225460000015472289260861149080_);">
		<defs>
			<rect id="SVGID_00000031198507110826370400000016904357174454281353_" width="1200" height="600"/>
		</defs>
		<clipPath id="SVGID_00000158708486354784924600000009401993850051696528_">
			<use xlink:href="#SVGID_00000031198507110826370400000016904357174454281353_"  style="overflow:visible;"/>
		</clipPath>
		
			<rect x="791.24" y="220.53" style="clip-path:url(#SVGID_00000158708486354784924600000009401993850051696528_);fill:#00CC99;" width="158.05" height="157.32"/>
	</g>
</g>
<g>
	<defs>
		<path id="SVGID_00000183932826160515419650000015021094790907584142_" d="M1043.86,245.04c-8.68,22.12-12.61,29.99-15.72,37.85
			c11.95,14.58,14.74,23.43,14.74,36.38c0,13.76-6.55,20.81-22.93,20.81c-2.46,0-3.93-1.31-4.42-3.93
			c-0.49-2.62,0.98-4.26,4.09-4.26h-1.31c7.04,0,9.83-2.95,9.83-15.08c0-11.64-3.28-19.5-11.96-30.97c-1.64-1.97-1.8-3.77-0.82-6.06
			c5.24-11.96,10.97-25.07,14.9-38.84h-19.49v126.34c0,2.95-1.47,4.42-4.42,4.42h-5.57c-2.95,0-4.42-1.47-4.42-4.42V237.5
			c0-2.95,1.47-4.43,4.42-4.43h39.8c2.95,0,4.42,1.48,4.42,4.43v1.97C1045,241.43,1044.68,242.91,1043.86,245.04 M1136.22,303.37
			c0,2.95-1.47,4.42-4.42,4.42h-22.44v45.72c0,7.54-1.15,7.37,8.03,7.37c5.24,0,6.06,0,7.7-4.42c0.65-1.8,1.31-9.01,1.64-20.81
			c0.16-3.11,1.8-4.59,4.75-4.26l6.39,0.66c2.78,0.33,4.09,1.8,4.09,4.75c-0.16,4.92-0.16,7.87-0.66,12.78
			c-0.49,6.39-0.49,12.95-5.9,17.21c-1.97,1.64-5.24,1.8-7.37,2.29c-1.47,0.33-8.68,0.49-11.14,0.49
			c-20.47,0-23.74-1.97-23.74-11.96V307.8h-9.5c-0.33,34.25-10.97,50.14-44.54,62.93c-2.46,0.98-4.42,0.33-5.9-1.97l-0.49-0.98
			c-1.64-2.62-0.82-4.75,1.97-5.9c24.07-9.67,32.43-23.43,33.08-54.08h-15.23c-2.95,0-4.42-1.47-4.42-4.42
			c0-2.79,1.47-4.26,4.42-4.26h79.26C1134.75,299.11,1136.22,300.59,1136.22,303.37 M1138.52,248.64v21.96
			c0,2.95-1.47,4.42-4.42,4.42h-7.53c-2.95,0-4.42-1.47-4.42-4.42v-18.03h-60.1v18.03c0,2.95-1.47,4.42-4.42,4.42h-7.04
			c-2.95,0-4.42-1.47-4.42-4.42v-21.96c0-2.95,1.47-4.43,4.42-4.43h31.61v-13.77c0-2.95,1.47-4.42,4.42-4.42h7.86
			c2.95,0,4.42,1.47,4.42,4.42v13.77h35.21C1137.04,244.21,1138.52,245.69,1138.52,248.64 M1119.36,273.22
			c0,2.79-1.47,4.26-4.42,4.26h-45.36c-2.95,0-4.42-1.47-4.42-4.42c0-2.62,1.47-3.93,4.42-3.93h45.36
			C1117.88,269.12,1119.36,270.6,1119.36,273.22"/>
	</defs>
	<clipPath id="SVGID_00000161595201158878282350000016591817780123279515_">
		<use xlink:href="#SVGID_00000183932826160515419650000015021094790907584142_"  style="overflow:visible;"/>
	</clipPath>
	<g style="clip-path:url(#SVGID_00000161595201158878282350000016591817780123279515_);">
		<defs>
			<rect id="SVGID_00000112616801438123432840000007029663318602354618_" width="1200" height="600"/>
		</defs>
		<clipPath id="SVGID_00000002351606272467702600000008029078040479077017_">
			<use xlink:href="#SVGID_00000112616801438123432840000007029663318602354618_"  style="overflow:visible;"/>
		</clipPath>
		
			<rect x="991.36" y="221.03" style="clip-path:url(#SVGID_00000002351606272467702600000008029078040479077017_);fill:#00CC99;" width="155.59" height="155.68"/>
	</g>
</g>
</svg>
